<svg width="299" height="27" viewBox="0 0 299 27" fill="none" xmlns="http://www.w3.org/2000/svg">
<path d="M98.7001 27C93.0058 27 90.3485 20.3442 87.8177 13.9395C85.5401 8.28837 83.2624 2.51163 79.2131 2.51163C75.1639 2.51163 72.8862 8.28837 70.6085 13.9395C68.0777 20.3442 65.4204 27 59.7262 27C54.032 27 51.3746 20.3442 48.8439 13.9395C46.5662 8.28837 44.2885 2.51163 40.2393 2.51163C36.19 2.51163 33.9123 8.28837 31.6346 13.9395C29.1039 20.3442 26.4466 27 20.7523 27C15.0581 27 12.4008 20.3442 9.87001 13.9395C7.59231 8.28837 5.31462 2.51163 1.26539 2.51163C0.506154 2.51163 0 2.0093 0 1.25581C0 0.502326 0.506154 0 1.26539 0C6.95962 0 9.61693 6.65582 12.1477 13.0605C14.4254 18.7116 16.7031 24.4884 20.7523 24.4884C24.8016 24.4884 27.0792 18.7116 29.3569 13.0605C31.8877 6.65582 34.545 0 40.2393 0C45.9335 0 48.5908 6.65582 51.1216 13.0605C53.3993 18.7116 55.677 24.4884 59.7262 24.4884C63.7754 24.4884 66.0531 18.7116 68.3308 13.0605C70.8616 6.65582 73.5189 0 79.2131 0C84.9074 0 87.5647 6.65582 90.0954 13.0605C92.3731 18.7116 94.6508 24.4884 98.7001 24.4884C99.4593 24.4884 99.9654 24.9907 99.9654 25.7442C99.9654 26.4977 99.4593 27 98.7001 27Z" fill="url(#paint0_radial)"/>
<path d="M100.725 27C106.419 27 109.076 20.3442 111.607 13.9395C113.885 8.28837 116.162 2.51163 120.212 2.51163C124.261 2.51163 126.539 8.28837 128.816 13.9395C131.347 20.3442 134.004 27 139.699 27C145.393 27 148.05 20.3442 150.581 13.9395C152.859 8.28837 155.136 2.51163 159.185 2.51163C163.235 2.51163 165.512 8.28837 167.79 13.9395C170.321 20.3442 172.978 27 178.672 27C184.367 27 187.024 20.3442 189.555 13.9395C191.832 8.28837 194.11 2.51163 198.159 2.51163C198.919 2.51163 199.425 2.0093 199.425 1.25581C199.425 0.502326 198.919 0 198.159 0C192.465 0 189.808 6.65582 187.277 13.0605C184.999 18.7116 182.722 24.4884 178.672 24.4884C174.623 24.4884 172.345 18.7116 170.068 13.0605C167.537 6.65582 164.88 0 159.185 0C153.491 0 150.834 6.65582 148.303 13.0605C146.025 18.7116 143.748 24.4884 139.699 24.4884C135.649 24.4884 133.372 18.7116 131.094 13.0605C128.563 6.65582 125.906 0 120.212 0C114.517 0 111.86 6.65582 109.329 13.0605C107.052 18.7116 104.774 24.4884 100.725 24.4884C99.9655 24.4884 99.4593 24.9907 99.4593 25.7442C99.4593 26.4977 99.9655 27 100.725 27Z" fill="url(#paint1_radial)"/>
<path d="M297.735 27C292.04 27 289.383 20.3442 286.852 13.9395C284.575 8.28837 282.297 2.51163 278.248 2.51163C274.198 2.51163 271.921 8.28837 269.643 13.9395C267.112 20.3442 264.455 27 258.761 27C253.067 27 250.409 20.3442 247.878 13.9395C245.601 8.28837 243.323 2.51163 239.274 2.51163C235.225 2.51163 232.947 8.28837 230.669 13.9395C228.138 20.3442 225.481 27 219.787 27C214.093 27 211.435 20.3442 208.905 13.9395C206.627 8.28837 204.349 2.51163 200.3 2.51163C199.541 2.51163 199.035 2.0093 199.035 1.25581C199.035 0.502326 199.541 0 200.3 0C205.994 0 208.652 6.65582 211.182 13.0605C213.46 18.7116 215.738 24.4884 219.787 24.4884C223.836 24.4884 226.114 18.7116 228.392 13.0605C230.922 6.65582 233.58 0 239.274 0C244.968 0 247.625 6.65582 250.156 13.0605C252.434 18.7116 254.712 24.4884 258.761 24.4884C262.81 24.4884 265.088 18.7116 267.365 13.0605C269.896 6.65582 272.553 0 278.248 0C283.942 0 286.599 6.65582 289.13 13.0605C291.408 18.7116 293.685 24.4884 297.735 24.4884C298.494 24.4884 299 24.9907 299 25.7442C299 26.4977 298.494 27 297.735 27Z" fill="url(#paint2_radial)"/>
<defs>
<radialGradient id="paint0_radial" cx="0" cy="0" r="1" gradientUnits="userSpaceOnUse" gradientTransform="translate(91.7404 62.7907) rotate(24.3785) scale(63.3846 693.149)">
<stop stop-color="#B0F9A9"/>
<stop offset="0.458253" stop-color="#17F9F2"/>
<stop offset="1" stop-color="#63F9CE"/>
</radialGradient>
<radialGradient id="paint1_radial" cx="0" cy="0" r="1" gradientUnits="userSpaceOnUse" gradientTransform="translate(91.7404 62.7907) rotate(24.3785) scale(63.3846 693.149)">
<stop stop-color="#B0F9A9"/>
<stop offset="0.458253" stop-color="#17F9F2"/>
<stop offset="1" stop-color="#63F9CE"/>
</radialGradient>
<radialGradient id="paint2_radial" cx="0" cy="0" r="1" gradientUnits="userSpaceOnUse" gradientTransform="translate(91.7404 62.7907) rotate(24.3785) scale(63.3846 693.149)">
<stop stop-color="#B0F9A9"/>
<stop offset="0.458253" stop-color="#17F9F2"/>
<stop offset="1" stop-color="#63F9CE"/>
</radialGradient>
</defs>
</svg>
